<svg
 xmlns="http://www.w3.org/2000/svg"
 xmlns:xlink="http://www.w3.org/1999/xlink"
 width="71px" height="73px">
  <path fill-rule="evenodd"  fill="rgb(139, 195, 74)" class="fil0" d="M0 26.61l31.73 0 0 11.35 -31.73 0 0 -11.35zm4.11 15.34l27.62 0 0 32.66 -20.38 0c-3.98,0 -7.24,-3.26 -7.24,-7.24l0 -25.42zm64.34 0l-27.63 0 0 32.66 20.38 0c3.99,0 7.25,-3.26 7.25,-7.24l0 -25.42zm-27.73 -15.34l31.73 0 0 11.35 -31.73 0 0 -11.35zm-20.45 -26.61c2.22,0 4.44,0 6.66,0 3.66,0.13 8.43,6.12 9.34,10.81 0.82,-4.69 5.98,-10.76 9.28,-10.81l6.71 0c4.98,0 9.06,4.07 9.06,9.05l0 3.51c0,4.98 -4.08,9.06 -9.06,9.06l-31.99 0c-4.98,0 -9.05,-4.08 -9.05,-9.06l0 -3.51c0,-4.98 4.07,-9.05 9.05,-9.05zm1.08 6.13l0 0c5.09,0 9.26,4.16 9.26,9.25l0 0 -8.88 0c-2.39,0 -4.35,-1.96 -4.35,-4.35l0 -0.93c0,-2.19 1.79,-3.97 3.97,-3.97zm29.88 0l0 0c-5.09,0 -9.25,4.16 -9.25,9.25l0 0 8.88 0c2.39,0 4.34,-1.96 4.34,-4.35l0 -0.93c0,-2.19 -1.78,-3.97 -3.97,-3.97z"/>
</svg>