<svg
 xmlns="http://www.w3.org/2000/svg"
 xmlns:xlink="http://www.w3.org/1999/xlink"
  width="86px" height="76px">
<path fill-rule="evenodd"  fill="rgb(139, 195, 74)"
  d="M24.84 0.01c0.48,0 10.3,-0.1 18.16,9.99 7.55,-10.16 15.73,-10.05 18.07,-9.99 13.8,0 25.07,10.99 25.07,24.84 -0.11,4.8 -1.32,10.21 -5.25,14.38 -10.81,11.46 -25.24,25.24 -37.88,37.15 -12.09,-11.07 -26.6,-25.49 -37.41,-36.45 -4.22,-4.29 -5.5,-9.09 -5.6,-15.08 0,-13.66 11.18,-24.84 24.84,-24.84zm-0.81 8.73c8.64,0.09 12.71,4.03 18.89,11.96 5.94,-7.99 11.12,-12.13 19.18,-11.98 10.85,0 15.99,7.22 15.99,15.92 -0.09,7.79 -3.62,10.32 -6.71,13.6 -8.5,9.02 -18.51,19 -28.45,28.36 -9.52,-8.7 -19.82,-19.59 -28.21,-28.32 -4,-4.16 -6.65,-7.06 -6.82,-13.59 -0.09,-7.9 5.39,-16.07 16.13,-15.95z"/>
</svg>


